<svg xmlns="http://www.w3.org/2000/svg" xmlns:xlink="http://www.w3.org/1999/xlink" viewBox="0 0 800 800"><defs><style>.a{clip-path:url(#b);}.b{fill:#0062ff;}.c,.g,.m{fill-rule:evenodd;}.d{fill:#ff0093;}.e{fill:#05ff95;}.f{fill:#d500ff;}.f,.g,.i{stroke:#000;stroke-width:2px;}.h{fill:#1a1a1a;}.j{fill:#ff0;}.k{fill:#fff;}.l{fill:#ff0045;}.m,.p{fill:none;}.n{fill:#ff9300;}.o{stroke:none;}</style><clipPath id="b"><rect width="800" height="800"/></clipPath></defs><g id="a" class="a"><rect class="k" width="800" height="800"/><g transform="translate(1199.352 782.287) rotate(-45)"><g transform="translate(-671 -693)"><g transform="translate(0 0)"><rect width="360" height="206.341"/><rect class="b" width="351.22" height="197.561" transform="translate(4.39 4.39)"/><g transform="translate(114.146 205.902)"><path class="c" d="M131.707,5.971H0L9.878-7.2H121.829Z" transform="translate(0 7.2)"/></g></g></g><g transform="translate(-263 -1201)"><rect width="360" height="206.341" transform="translate(0 0)"/><rect class="d" width="351.22" height="197.561" transform="translate(4.39 4.39)"/><g transform="translate(114.146 205.902)"><path class="c" d="M131.707,5.971H0L9.878-7.2H121.829Z" transform="translate(0 7.2)"/></g></g><g transform="translate(-875 -947)"><path d="M0,0H360V206.341H0Z" transform="translate(0 0)"/><rect class="e" width="351.22" height="197.561" transform="translate(4.39 4.39)"/><g transform="translate(114.146 205.902)"><path class="c" d="M131.707,5.971H0L9.878-7.2H121.829Z" transform="translate(0 7.2)"/></g></g><g transform="translate(-263 -693)"><rect width="360" height="206.341" transform="translate(0 0)"/><g class="f" transform="translate(4.39 4.39)"><rect class="o" width="351.22" height="197.561"/><rect class="p" x="1" y="1" width="349.22" height="195.561"/></g><g transform="translate(114.146 205.902)"><path class="g" d="M131.707,5.971H0L9.878-7.2H121.829Z" transform="translate(0 7.2)"/></g></g><g transform="translate(-671 -1201)"><path d="M0,0H360V206.341H0Z" transform="translate(0 0)"/><rect class="h" width="351.22" height="197.561" transform="translate(4.39 4.39)"/><g transform="translate(114.146 205.902)"><path class="c" d="M131.707,5.971H0L9.878-7.2H121.829Z" transform="translate(0 7.2)"/></g></g><g transform="translate(-59 -947)"><g class="i" transform="translate(0 0)"><rect class="o" width="360" height="206.341"/><rect class="p" x="1" y="1" width="358" height="204.341"/></g><rect class="j" width="351.22" height="197.561" transform="translate(4.39 4.39)"/><g transform="translate(114.146 205.902)"><path class="g" d="M131.707,5.971H0L9.878-7.2H121.829Z" transform="translate(0 7.2)"/></g></g><g transform="translate(-467 -947)"><rect width="360" height="206.341" transform="translate(0 0)"/><rect class="k" width="351.22" height="197.561" transform="translate(4.39 4.39)"/><g transform="translate(114.146 205.902)"><path class="c" d="M131.707,5.971H0L9.878-7.2H121.829Z" transform="translate(0 7.2)"/></g></g><g transform="translate(-467 -439)"><rect width="360" height="206.341" transform="translate(0 0)"/><rect class="l" width="351.22" height="197.561" transform="translate(4.39 4.39)"/><g transform="translate(114.146 205.902)"><path class="m" d="M131.707,5.971H0L9.878-7.2H121.829Z" transform="translate(0 7.2)"/></g></g><g transform="translate(-467 -1468)"><g class="i" transform="translate(0 0)"><rect class="o" width="360" height="206.341"/><rect class="p" x="1" y="1" width="358" height="204.341"/></g><rect class="n" width="351.22" height="197.561" transform="translate(4.39 4.39)"/><g transform="translate(114.146 205.902)"><path class="g" d="M131.707,5.971H0L9.878-7.2H121.829Z" transform="translate(0 7.2)"/></g></g></g></g></svg>