<svg xmlns="http://www.w3.org/2000/svg" xmlns:xlink="http://www.w3.org/1999/xlink" viewBox="0 0 800 800"><defs><style>.a{clip-path:url(#b);}.b,.d{fill:none;}.b{stroke:#000;stroke-width:6px;}.c{stroke:none;}.e{fill:#fff;}</style><clipPath id="b"><rect width="800" height="800"/></clipPath></defs><g id="a" class="a"><rect class="e" width="800" height="800"/><g transform="translate(395.404 -163.418) rotate(45)"><g transform="translate(263 131)"><g class="b" transform="translate(70 134)"><rect class="c" width="134" height="270" rx="20"/><rect class="d" x="3" y="3" width="128" height="264" rx="17"/></g><path d="M0,0H68a0,0,0,0,1,0,0V9a6,6,0,0,1-6,6H6A6,6,0,0,1,0,9V0A0,0,0,0,1,0,0Z" transform="translate(103 134)"/></g><g transform="translate(445 -346)"><g class="b" transform="translate(70 134)"><rect class="c" width="134" height="270" rx="20"/><rect class="d" x="3" y="3" width="128" height="264" rx="17"/></g><path d="M0,0H68a0,0,0,0,1,0,0V9a6,6,0,0,1-6,6H6A6,6,0,0,1,0,9V0A0,0,0,0,1,0,0Z" transform="translate(103 134)"/></g><g transform="translate(263 449)"><g class="b" transform="translate(70 134)"><rect class="c" width="134" height="270" rx="20"/><rect class="d" x="3" y="3" width="128" height="264" rx="17"/></g><path d="M0,0H68a0,0,0,0,1,0,0V9a6,6,0,0,1-6,6H6A6,6,0,0,1,0,9V0A0,0,0,0,1,0,0Z" transform="translate(103 134)"/></g><g transform="translate(81 290)"><g class="b" transform="translate(70 134)"><rect class="c" width="134" height="270" rx="20"/><rect class="d" x="3" y="3" width="128" height="264" rx="17"/></g><path d="M0,0H68a0,0,0,0,1,0,0V9a6,6,0,0,1-6,6H6A6,6,0,0,1,0,9V0A0,0,0,0,1,0,0Z" transform="translate(103 134)"/></g><g transform="translate(445 290)"><g class="b" transform="translate(70 134)"><rect class="c" width="134" height="270" rx="20"/><rect class="d" x="3" y="3" width="128" height="264" rx="17"/></g><path d="M0,0H68a0,0,0,0,1,0,0V9a6,6,0,0,1-6,6H6A6,6,0,0,1,0,9V0A0,0,0,0,1,0,0Z" transform="translate(103 134)"/></g><g transform="translate(-101 131)"><g class="b" transform="translate(70 134)"><rect class="c" width="134" height="270" rx="20"/><rect class="d" x="3" y="3" width="128" height="264" rx="17"/></g><path d="M0,0H68a0,0,0,0,1,0,0V9a6,6,0,0,1-6,6H6A6,6,0,0,1,0,9V0A0,0,0,0,1,0,0Z" transform="translate(103 134)"/></g><g transform="translate(-101 449)"><g class="b" transform="translate(70 134)"><rect class="c" width="134" height="270" rx="20"/><rect class="d" x="3" y="3" width="128" height="264" rx="17"/></g><path d="M0,0H68a0,0,0,0,1,0,0V9a6,6,0,0,1-6,6H6A6,6,0,0,1,0,9V0A0,0,0,0,1,0,0Z" transform="translate(103 134)"/></g><g transform="translate(627 140)"><g class="b" transform="translate(70 134)"><rect class="c" width="134" height="270" rx="20"/><rect class="d" x="3" y="3" width="128" height="264" rx="17"/></g><path d="M0,0H68a0,0,0,0,1,0,0V9a6,6,0,0,1-6,6H6A6,6,0,0,1,0,9V0A0,0,0,0,1,0,0Z" transform="translate(103 134)"/></g><g transform="translate(627 458)"><g class="b" transform="translate(70 134)"><rect class="c" width="134" height="270" rx="20"/><rect class="d" x="3" y="3" width="128" height="264" rx="17"/></g><path d="M0,0H68a0,0,0,0,1,0,0V9a6,6,0,0,1-6,6H6A6,6,0,0,1,0,9V0A0,0,0,0,1,0,0Z" transform="translate(103 134)"/></g><g transform="translate(81 -28)"><g class="b" transform="translate(70 134)"><rect class="c" width="134" height="270" rx="20"/><rect class="d" x="3" y="3" width="128" height="264" rx="17"/></g><path d="M0,0H68a0,0,0,0,1,0,0V9a6,6,0,0,1-6,6H6A6,6,0,0,1,0,9V0A0,0,0,0,1,0,0Z" transform="translate(103 134)"/></g><g transform="translate(445 -28)"><g class="b" transform="translate(70 134)"><rect class="c" width="134" height="270" rx="20"/><rect class="d" x="3" y="3" width="128" height="264" rx="17"/></g><path d="M0,0H68a0,0,0,0,1,0,0V9a6,6,0,0,1-6,6H6A6,6,0,0,1,0,9V0A0,0,0,0,1,0,0Z" transform="translate(103 134)"/></g><g transform="translate(81 608)"><g class="b" transform="translate(70 134)"><rect class="c" width="134" height="270" rx="20"/><rect class="d" x="3" y="3" width="128" height="264" rx="17"/></g><path d="M0,0H68a0,0,0,0,1,0,0V9a6,6,0,0,1-6,6H6A6,6,0,0,1,0,9V0A0,0,0,0,1,0,0Z" transform="translate(103 134)"/></g><g transform="translate(445 608)"><g class="b" transform="translate(70 134)"><rect class="c" width="134" height="270" rx="20"/><rect class="d" x="3" y="3" width="128" height="264" rx="17"/></g><path d="M0,0H68a0,0,0,0,1,0,0V9a6,6,0,0,1-6,6H6A6,6,0,0,1,0,9V0A0,0,0,0,1,0,0Z" transform="translate(103 134)"/></g><g transform="translate(263 -196)"><g class="b" transform="translate(70 134)"><rect class="c" width="134" height="270" rx="20"/><rect class="d" x="3" y="3" width="128" height="264" rx="17"/></g><path d="M0,0H68a0,0,0,0,1,0,0V9a6,6,0,0,1-6,6H6A6,6,0,0,1,0,9V0A0,0,0,0,1,0,0Z" transform="translate(103 134)"/></g><g transform="translate(-101 -196)"><g class="b" transform="translate(70 134)"><rect class="c" width="134" height="270" rx="20"/><rect class="d" x="3" y="3" width="128" height="264" rx="17"/></g><path d="M0,0H68a0,0,0,0,1,0,0V9a6,6,0,0,1-6,6H6A6,6,0,0,1,0,9V0A0,0,0,0,1,0,0Z" transform="translate(103 134)"/></g><g transform="translate(627 -187)"><g class="b" transform="translate(70 134)"><rect class="c" width="134" height="270" rx="20"/><rect class="d" x="3" y="3" width="128" height="264" rx="17"/></g><path d="M0,0H68a0,0,0,0,1,0,0V9a6,6,0,0,1-6,6H6A6,6,0,0,1,0,9V0A0,0,0,0,1,0,0Z" transform="translate(103 134)"/></g><g transform="translate(81 -346)"><g class="b" transform="translate(70 134)"><rect class="c" width="134" height="270" rx="20"/><rect class="d" x="3" y="3" width="128" height="264" rx="17"/></g><path d="M0,0H68a0,0,0,0,1,0,0V9a6,6,0,0,1-6,6H6A6,6,0,0,1,0,9V0A0,0,0,0,1,0,0Z" transform="translate(103 134)"/></g><g transform="translate(-283 290)"><g class="b" transform="translate(70 134)"><rect class="c" width="134" height="270" rx="20"/><rect class="d" x="3" y="3" width="128" height="264" rx="17"/></g><path d="M0,0H68a0,0,0,0,1,0,0V9a6,6,0,0,1-6,6H6A6,6,0,0,1,0,9V0A0,0,0,0,1,0,0Z" transform="translate(103 134)"/></g><g transform="translate(-283 -28)"><g class="b" transform="translate(70 134)"><rect class="c" width="134" height="270" rx="20"/><rect class="d" x="3" y="3" width="128" height="264" rx="17"/></g><path d="M0,0H68a0,0,0,0,1,0,0V9a6,6,0,0,1-6,6H6A6,6,0,0,1,0,9V0A0,0,0,0,1,0,0Z" transform="translate(103 134)"/></g><g transform="translate(813 290)"><g class="b" transform="translate(70 134)"><rect class="c" width="134" height="270" rx="20"/><rect class="d" x="3" y="3" width="128" height="264" rx="17"/></g><path d="M0,0H68a0,0,0,0,1,0,0V9a6,6,0,0,1-6,6H6A6,6,0,0,1,0,9V0A0,0,0,0,1,0,0Z" transform="translate(103 134)"/></g><g transform="translate(813 -28)"><g class="b" transform="translate(70 134)"><rect class="c" width="134" height="270" rx="20"/><rect class="d" x="3" y="3" width="128" height="264" rx="17"/></g><path d="M0,0H68a0,0,0,0,1,0,0V9a6,6,0,0,1-6,6H6A6,6,0,0,1,0,9V0A0,0,0,0,1,0,0Z" transform="translate(103 134)"/></g><g transform="translate(263 -514)"><g class="b" transform="translate(70 134)"><rect class="c" width="134" height="270" rx="20"/><rect class="d" x="3" y="3" width="128" height="264" rx="17"/></g><path d="M0,0H68a0,0,0,0,1,0,0V9a6,6,0,0,1-6,6H6A6,6,0,0,1,0,9V0A0,0,0,0,1,0,0Z" transform="translate(103 134)"/></g><g transform="translate(263 767)"><g class="b" transform="translate(70 134)"><rect class="c" width="134" height="270" rx="20"/><rect class="d" x="3" y="3" width="128" height="264" rx="17"/></g><path d="M0,0H68a0,0,0,0,1,0,0V9a6,6,0,0,1-6,6H6A6,6,0,0,1,0,9V0A0,0,0,0,1,0,0Z" transform="translate(103 134)"/></g></g></g></svg>