<svg xmlns="http://www.w3.org/2000/svg" xmlns:xlink="http://www.w3.org/1999/xlink" viewBox="0 0 800 800"><defs><style>.a{clip-path:url(#ad);}.b{fill:url(#a);}.c{fill:url(#b);}.d{fill:url(#e);}.e{fill:url(#f);}.f{fill:url(#g);}.g{fill:url(#i);}.h{fill:url(#k);}.i{fill:url(#n);}.j{fill:url(#o);}.k{fill:url(#q);}.l{fill:url(#aa);}.m{fill:#fff;}</style><linearGradient id="a" x2="1" y2="1" gradientUnits="objectBoundingBox"><stop offset="0" stop-color="#8bbc44"/><stop offset="1" stop-color="#569101"/></linearGradient><linearGradient id="b" x2="1" y2="1" gradientUnits="objectBoundingBox"><stop offset="0" stop-color="#bebe62"/><stop offset="1" stop-color="#989827"/></linearGradient><linearGradient id="e" x2="1" y2="1" gradientUnits="objectBoundingBox"><stop offset="0" stop-color="#e65b9f"/><stop offset="1" stop-color="#c41b71"/></linearGradient><linearGradient id="f" x2="1" y2="1" gradientUnits="objectBoundingBox"><stop offset="0" stop-color="#c667d5"/><stop offset="1" stop-color="#9928aa"/></linearGradient><linearGradient id="g" x2="1" y2="1" gradientUnits="objectBoundingBox"><stop offset="0" stop-color="#e47d44"/><stop offset="1" stop-color="#c64b01"/></linearGradient><linearGradient id="i" x2="1" y2="1" gradientUnits="objectBoundingBox"><stop offset="0" stop-color="#e49c43"/><stop offset="1" stop-color="#c06d01"/></linearGradient><linearGradient id="k" x2="1" y2="1" gradientUnits="objectBoundingBox"><stop offset="0" stop-color="#e66b5e"/><stop offset="1" stop-color="#c43121"/></linearGradient><linearGradient id="n" x2="1" y2="1" gradientUnits="objectBoundingBox"><stop offset="0" stop-color="#598fb2"/><stop offset="1" stop-color="#1c5f8a"/></linearGradient><linearGradient id="o" x2="1" y2="1" gradientUnits="objectBoundingBox"><stop offset="0" stop-color="#4abdb0"/><stop offset="1" stop-color="#089684"/></linearGradient><linearGradient id="q" x2="1" y2="1" gradientUnits="objectBoundingBox"><stop offset="0" stop-color="#caac42"/><stop offset="1" stop-color="#ab8600"/></linearGradient><linearGradient id="aa" x2="1" y2="1" gradientUnits="objectBoundingBox"><stop offset="0" stop-color="#5d69cf"/><stop offset="1" stop-color="#202ea9"/></linearGradient><clipPath id="ad"><rect width="800" height="800"/></clipPath></defs><g id="ac" class="a"><rect class="m" width="800" height="800"/><g transform="translate(-165.685 400) rotate(-45)"><rect class="b" width="480" height="120" rx="12" transform="translate(-368 676)"/><rect class="c" width="480" height="120" rx="12" transform="translate(-632 -164)"/><path class="b" d="M12,0H468a12,12,0,0,1,12,12v96a12,12,0,0,1-12,12H12A12,12,0,0,1,0,108V12A12,12,0,0,1,12,0Z" transform="translate(-368 4)"/><rect class="c" width="480" height="120" rx="12" transform="translate(-632 840)"/><path class="d" d="M12,0H468a12,12,0,0,1,12,12v96a12,12,0,0,1-12,12H12A12,12,0,0,1,0,108V12A12,12,0,0,1,12,0Z" transform="translate(-632 172)"/><path class="e" d="M12,0H468a12,12,0,0,1,12,12v96a12,12,0,0,1-12,12H12A12,12,0,0,1,0,108V12A12,12,0,0,1,12,0Z" transform="translate(-632 508)"/><rect class="f" width="480" height="120" rx="12" transform="translate(-104 508)"/><rect class="d" width="480" height="120" rx="12" transform="translate(-104 840)"/><rect class="g" width="480" height="120" rx="12" transform="translate(160 4)"/><rect class="d" width="480" height="120" rx="12" transform="translate(424 -164)"/><rect class="h" width="480" height="120" rx="12" transform="translate(160 340)"/><rect class="h" width="480" height="120" rx="12" transform="translate(160 -332)"/><rect class="e" width="480" height="120" rx="12" transform="translate(160 1012)"/><rect class="i" width="480" height="120" rx="12" transform="translate(160 676)"/><rect class="j" width="480" height="120" rx="12" transform="translate(424 508)"/><rect class="c" width="480" height="120" rx="12" transform="translate(688 4)"/><path class="k" d="M12,0H468a12,12,0,0,1,12,12v96a12,12,0,0,1-12,12H12A12,12,0,0,1,0,108V12A12,12,0,0,1,12,0Z" transform="translate(424 172)"/><rect class="b" width="480" height="120" rx="12" transform="translate(-104 -164)"/><rect class="f" width="480" height="120" rx="12" transform="translate(688 676)"/><rect class="c" width="480" height="120" rx="12" transform="translate(952 -164)"/><rect class="c" width="480" height="120" rx="12" transform="translate(952 840)"/><path class="d" d="M12,0H468a12,12,0,0,1,12,12v96a12,12,0,0,1-12,12H12A12,12,0,0,1,0,108V12A12,12,0,0,1,12,0Z" transform="translate(952 172)"/><path class="e" d="M12,0H468a12,12,0,0,1,12,12v96a12,12,0,0,1-12,12H12A12,12,0,0,1,0,108V12A12,12,0,0,1,12,0Z" transform="translate(952 508)"/><rect class="d" width="480" height="120" rx="12" transform="translate(-104.058 172.294)"/><path class="e" d="M12,0H468a12,12,0,0,1,12,12v96a12,12,0,0,1-12,12H12A12,12,0,0,1,0,108V12A12,12,0,0,1,12,0Z" transform="translate(-368 340)"/><path class="e" d="M12,0H468a12,12,0,0,1,12,12v96a12,12,0,0,1-12,12H12A12,12,0,0,1,0,108V12A12,12,0,0,1,12,0Z" transform="translate(688 340)"/><rect class="l" width="480" height="120" rx="12" transform="translate(-368 340)"/><rect class="c" width="480" height="120" rx="12" transform="translate(424 840)"/></g></g></svg>